<?xml version="1.0" encoding="utf-8"?>
<!-- Generator: Adobe Illustrator 22.1.0, SVG Export Plug-In . SVG Version: 6.00 Build 0)  -->
<svg version="1.2" baseProfile="tiny" xmlns="http://www.w3.org/2000/svg" xmlns:xlink="http://www.w3.org/1999/xlink" x="0px"
	 y="0px" viewBox="0 0 612 792" xml:space="preserve">
<g id="Guides_For_Artboard">
</g>
<g id="Layer_1">
	<g>
		<rect x="146" y="329" fill-rule="evenodd" fill="#FFFFFF" width="351" height="178.6"/>
		<rect x="146" y="329" fill-rule="evenodd" fill="#FFFFFF" width="351" height="178.6"/>
		<g>
			<g>
				<path fill-rule="evenodd" fill="#0073AD" d="M439.1,404.9c3.8,0,9.7,0.1,12.2,3.4c2,2.6,1.8,7.1,1.8,10.2l0,1h-3.4l-0.1-0.9
					c-0.3-5.2-3.6-8.7-9-8.7c-11.4,0-12.2,18.1-7.6,25.4c0.9,1.4,2.1,2.5,3.7,3.3c5.3,2.5,11.1-0.3,14.2-4.9l0.6-0.8l3.1,2.3
					l-0.5,0.8c-1.1,1.8-2.4,3.5-4.1,4.9c-6.8,5.7-18.9,4.7-24.5-2.2c-3.3-4.1-4.7-10-4.4-15.3C421.7,412.8,428.1,404.9,439.1,404.9z
					"/>
				<path fill-rule="evenodd" fill="#0073AD" d="M414.8,415.8v27.8h-8.9v-27.8c0-4.4-1.4-5.1-3.5-5.1h-13.3v22.8
					c0,6.5,4.7,7,9.7,4.5l0.9-0.5l1.6,3.1l-0.6,0.5c-1.8,1.4-4.1,2.4-6.3,3c-7.9,1.8-14-2.1-14-10.6v-22.8h-5.4v-5h5.4v-5.4
					c0-2.6,2.1-6.1,5.9-6.1h2.9v11.5l13.3,0C410.5,405.6,414.8,404.8,414.8,415.8z"/>
				<path fill-rule="evenodd" fill="#0073AD" d="M356.3,408.6c2.4-2.4,5.8-3.7,9.2-3.7c3.9,0,6.5,1.6,8.2,5.2l0.4,0.7l-4.5,3.4
					l-0.6-0.8c-1.2-1.5-3.5-1.9-5.3-1.9c-0.8,0-1.7,0.2-2.5,0.5c-1,0.3-3.4,1.5-3.8,2.6v29.2h-8.9v-27.8c0-4.3-0.3-6.7-5.1-6.7h-1
					v-3.5h1C347.3,405.6,353.9,404.6,356.3,408.6z"/>
				<path fill-rule="evenodd" fill="#0073AD" d="M325.3,439.1c0.2,0.1,0.5,0.1,0.7,0.2c4.6,1.1,9-1.9,11.5-5.6l0.6-0.8l3.1,2.3
					l-0.5,0.8c-1.1,1.8-2.4,3.5-4,4.9c-3.1,2.6-7.3,3.8-11.4,3.7V439.1L325.3,439.1z M325.3,404.9c10.8,0.2,16.5,7.3,15.9,17.9
					l-0.2,4h-15.7v-5h7c-0.1-2-0.3-4.1-0.8-6c-0.8-2.6-2.5-5.3-5.5-5.5c-0.2,0-0.5,0-0.7,0V404.9z M318.3,426.8
					c0.2,4.9,2,10.7,7,12.3v5.3c-2.3-0.1-4.7-0.6-6.7-1.6c-15.1-7.3-12.3-37.9,6.3-37.9c0.1,0,0.3,0,0.4,0v5.4
					c-1.8,0.2-3.4,1.3-4.4,2.8c-1.8,2.4-2.5,5.7-2.6,8.7h7v5H318.3z"/>
				<path fill-rule="evenodd" fill="#0073AD" d="M293.2,429.4l17.9-42.6c1.6-3.8,3.6-9.6,10-9.5l-28.4,67.1h-2.8l-12.1-28.6
					c-1.4-3.3-2.9-7.1-7.1-7.3l-0.9,0V405h1c0.2,0,0.4,0,0.6,0c7.9-0.6,12.9,2.8,15.9,10.1L293.2,429.4z"/>
				<path fill-rule="evenodd" fill="#0073AD" d="M259.2,440.5c-2.2,2.5-5.4,3.5-8.6,3.8v-4.9c2.7,0.3,5.6-1.2,7.5-4v-23.6
					c-2.2-1.1-4.9-2.1-7.5-1.8v-5.2c2.4,0.1,5,0.7,7.5,1.8v-5.3c0-5.1-0.5-6.7-5.9-6.7h-1v-3.5h1c9.7,0,14.8-1.9,14.8,10.2v42.4
					h-5.3L259.2,440.5z M250.6,444.3c-0.6,0.1-1.3,0.1-1.9,0.1c-13.6,0-16.6-16.9-13.9-27.3c2.2-8.5,8.6-12.6,15.8-12.3v5.2
					c-1.1,0.1-2.2,0.5-3.1,1.2c-5.6,4.1-5.1,18.5-2.3,24.1c1.3,2.6,3.3,3.9,5.4,4.1V444.3z"/>
				<path fill-rule="evenodd" fill="#0073AD" d="M222.5,440.5c-2.6,2.7-6.6,3.9-10.2,3.9c-7.1,0-12.8-4.3-12.8-11.8
					c0-10.1,11.3-11.5,19.6-11.7c0,2.4-0.2,4.8-4,5.6c-3.4,0.7-6.4,2.4-6.4,6.1c0,2.3,1,4.4,3,5.6c3.6,2.1,7.5-0.1,9.6-3.2
					c0-3,0-14.1,0-14.1l0-0.5v0c0-2.9-0.3-6.2-2.1-8.5c-1.4-1.8-4.3-2.5-6.5-2.1c-3.2,0.5-5.2,2.7-5.9,5.8l-0.2,0.8h-5.2l0-1
					c-0.1-5.7,1.6-8.8,7.4-9.9c8.8-1.8,18-1,20.6,9.2c0.5,1.9,0.6,4.2,0.7,6.1c0.1,2.8,0.2,5.5,0.2,8.3c0,4.5-0.1,9-0.1,13.5v1h-5.3
					L222.5,440.5z"/>
				<path fill-rule="evenodd" fill="#0073AD" d="M479.9,440.5c-2.6,2.7-6.6,3.9-10.2,3.9c-7.1,0-12.8-4.3-12.8-11.8
					c0-10.1,11.3-11.5,19.6-11.7c0,2.4-0.2,4.8-4,5.6c-3.4,0.7-6.4,2.4-6.4,6.1c0,2.3,1,4.4,3,5.6c3.6,2.1,7.5-0.1,9.6-3.2
					c0-3,0-14.1,0-14.1l0-0.5v0c0-2.9-0.3-6.2-2.1-8.5c-1.4-1.8-4.3-2.5-6.5-2.1c-3.2,0.5-5.2,2.7-5.9,5.8l-0.2,0.8h-5.2l0-1
					c-0.1-5.7,1.6-8.8,7.4-9.9c8.8-1.8,18-1,20.6,9.2c0.5,1.9,0.6,4.2,0.7,6.1c0.1,2.8,0.2,5.5,0.2,8.3c0,4.5-0.1,9-0.1,13.5v1h-5.3
					L479.9,440.5z"/>
				<path fill-rule="evenodd" fill="#0073AD" d="M409.7,403.3c2.8,0,5.1-2.3,5.1-5.1c0-2.8-2.3-5.1-5.1-5.1c-2.8,0-5.1,2.3-5.1,5.1
					C404.5,401,406.8,403.3,409.7,403.3z"/>
			</g>
			<path fill="#939598" d="M171,423c0.4,0.3,0.6,0.6,0.8,1l7.6,16.2h6.7v-33.5c-2.1-1-3.6-3.2-3.6-5.7c0-3.5,2.8-6.3,6.3-6.3
				c3.5,0,6.3,2.8,6.3,6.3c0,2.5-1.5,4.7-3.6,5.7v36.1h0c0,1.4-1.2,2.6-2.6,2.6h-8.4v5.9h8.4c1.4,0,2.6,1.2,2.6,2.6
				c0,1.4-1.2,2.6-2.6,2.6h-8.4c0.1,2.2,0.7,3.9,1.9,5.1c1.3,1.2,3.4,2,6.3,2c0.1,0,0.2,0,0.2,0c1.4,0,2.6,1.2,2.6,2.6
				c0,1.4-1.1,2.6-2.5,2.6c-0.1,0-0.2,0-0.3,0c-4.3,0-7.6-1.2-9.9-3.4c-2.3-2.2-3.5-5.3-3.5-9l0,0v0l0-0.1h0V454v-10.6l-7.9-16.8
				c-3.7-3.1-6.6-6.9-8.7-11.2c-2.1-4.4-3.3-9.3-3.3-14.4c0-9.2,3.7-17.6,9.8-23.6c6-6,14.4-9.8,23.6-9.8c7.6,0,14.6,2.5,20.3,6.9
				c5.7,4.4,10,10.6,11.9,17.9c0.4,1.4-0.5,2.8-1.8,3.2c-1.4,0.4-2.8-0.5-3.2-1.8c-1.7-6.2-5.3-11.4-10.1-15.1
				c-4.8-3.7-10.8-5.8-17.2-5.8c-7.8,0-14.8,3.2-19.9,8.3c-5.1,5.1-8.3,12.1-8.3,19.9c0,4.3,1,8.4,2.7,12.1
				C165,417,167.7,420.4,171,423z"/>
		</g>
	</g>
</g>
</svg>
